<?xml version="1.0" encoding="UTF-8"?>
<svg width="42px" height="44px" viewBox="0 0 42 44" version="1.1" xmlns="http://www.w3.org/2000/svg" xmlns:xlink="http://www.w3.org/1999/xlink">
    <g id="Page-1" stroke="none" stroke-width="1" fill="none" fill-rule="evenodd">
        <g id="8" fill="#FEE066" fill-rule="nonzero">
            <path d="M21,16.111 C11.062,16.111 0.5,13.375 0.5,8.305 C0.5,3.235 11.062,0.5 21,0.5 C30.938,0.5 41.5,3.236 41.5,8.306 C41.5,13.376 30.938,16.111 21,16.111 Z M21,2.5 C10.412,2.5 2.5,5.565 2.5,8.306 C2.5,11.047 10.412,14.112 21,14.112 C31.588,14.112 39.5,11.047 39.5,8.306 C39.5,5.565 31.588,2.5 21,2.5 Z M21,18.19 C9.41,18.19 0,15.15 0,11.39 L0,36.69 C0,40.45 9.41,43.5 21,43.5 C32.59,43.5 42,40.45 42,36.69 L42,11.39 C42,15.15 32.59,18.19 21,18.19 Z M30.12,30.5 C30.12,31.88 29.01,33 27.62,33 C26.24,33 25.12,31.88 25.12,30.5 L16.12,30.5 C16.12,31.88 15.01,33 13.62,33 C12.24,33 11.12,31.88 11.12,30.5 C11.12,29.68 11.53,28.95 12.14,28.5 C11.53,28.05 11.12,27.32 11.12,26.5 C11.12,25.12 12.24,24 13.62,24 C15.01,24 16.12,25.12 16.12,26.5 L25.12,26.5 C25.12,25.12 26.24,24 27.62,24 C29.01,24 30.12,25.12 30.12,26.5 C30.12,27.32 29.73,28.04 29.12,28.5 C29.73,28.96 30.12,29.68 30.12,30.5 Z" id="icon:3_4_"></path>
        </g>
    </g>
</svg>
