<svg xmlns="http://www.w3.org/2000/svg" viewBox="0 0 30 20"><g fill="none" fill-rule="nonzero"><path fill="#FF0200" d="M0 0h30v19.3H0z"/><path fill="#000" stroke="#FFF" stroke-width="1.5" d="M0 2h30m0 3H0m0 3h30m0 3H0m0 3h30m0 3H0"/><path fill="#1601A4" d="M0 0h14.7v9.2H0z"/><g fill="#FFF"><path d="M1.3.4l.3 1.1-1-.7h1.2l-1 .7zM1.3 2.5l.3 1.1-1-.7h1.2l-1 .7zM1.3 4.6l.3 1.1-1-.7h1.2l-1 .7zM1.3 6.7l.3 1-1-.6h1.2l-1 .7z"/><g><path d="M2.5 1.5l.3 1-1-.6H3l-1 .7zM2.5 3.6l.3 1-1-.6H3l-1 .7zM2.5 5.7l.3 1-1-.6H3l-1 .7zM2.5 7.7l.3 1.1-1-.7H3l-1 .7z"/></g><g><path d="M3.7.4L4 1.5 3.1.8h1.1l-.9.7zM3.7 2.5L4 3.6 3.1 3h1.1l-.9.7zM3.7 4.6L4 5.7 3.1 5h1.1l-.9.7zM3.7 6.7l.3 1-.9-.6h1.1l-.9.7z"/><g><path d="M5 1.5l.2 1-.9-.6h1.1l-.9.7zM5 3.6l.2 1-.9-.6h1.1l-.9.7zM5 5.7l.2 1-.9-.6h1.1l-.9.7zM5 7.7l.2 1.1-.9-.7h1.1l-.9.7z"/></g></g><g><path d="M6.2.4l.3 1.1-1-.7h1.2l-1 .7zM6.2 2.5l.3 1.1-1-.7h1.2l-1 .7zM6.2 4.6l.3 1.1-1-.7h1.2l-1 .7zM6.2 6.7l.3 1-1-.6h1.2l-1 .7z"/><g><path d="M7.4 1.5l.3 1-1-.6H8l-1 .7zM7.4 3.6l.3 1-1-.6H8l-1 .7zM7.4 5.7l.3 1-1-.6H8l-1 .7zM7.4 7.7l.3 1.1-1-.7H8l-1 .7z"/></g><g><path d="M8.6.4l.3 1.1L8 .8h1.1l-.9.7zM8.6 2.5l.3 1.1L8 3h1.1l-.9.7zM8.6 4.6l.3 1.1L8 5h1.1l-.9.7zM8.6 6.7l.3 1-.9-.6h1.1l-.9.7z"/><g><path d="M9.8 1.5l.3 1-.9-.6h1.1l-.9.7zM9.8 3.6l.3 1-.9-.6h1.1l-.9.7zM9.8 5.7l.3 1-.9-.6h1.1l-.9.7zM9.8 7.7l.3 1.1-.9-.7h1.1l-.9.7z"/></g></g></g><g><path d="M11 .4l.3 1.1-.9-.7h1.1l-.9.7zM11 2.5l.3 1.1-.9-.7h1.1l-.9.7zM11 4.6l.3 1.1-.9-.7h1.1l-.9.7zM11 6.7l.3 1-.9-.6h1.1l-.9.7z"/><g><path d="M12.3 1.5l.3 1-1-.6h1.2l-1 .7zM12.3 3.6l.3 1-1-.6h1.2l-1 .7zM12.3 5.7l.3 1-1-.6h1.2l-1 .7zM12.3 7.7l.3 1.1-1-.7h1.2l-1 .7z"/></g></g><g><path d="M13.5.4l.3 1.1-.9-.7H14l-.9.7zM13.5 2.5l.3 1.1-.9-.7H14l-.9.7zM13.5 4.6l.3 1.1-.9-.7H14l-.9.7zM13.5 6.7l.3 1-.9-.6H14l-.9.7z"/></g></g></g></svg>