<?xml version="1.0" encoding="UTF-8"?>
<svg width="372px" height="455px" viewBox="0 0 372 455" version="1.1" xmlns="http://www.w3.org/2000/svg" xmlns:xlink="http://www.w3.org/1999/xlink">
    <title>graph</title>
    <defs>
        <linearGradient x1="53.4866864%" y1="-5.72462792%" x2="66.4991001%" y2="96.690049%" id="linearGradient-1">
            <stop stop-color="#64280D" offset="0%"></stop>
            <stop stop-color="#0B1623" stop-opacity="0" offset="100%"></stop>
        </linearGradient>
        <linearGradient x1="13.8172509%" y1="66.2389203%" x2="93.7391088%" y2="35.5675801%" id="linearGradient-2">
            <stop stop-color="#64280D" offset="0%"></stop>
            <stop stop-color="#D25B26" offset="11.3931582%"></stop>
            <stop stop-color="#FFA700" offset="100%"></stop>
        </linearGradient>
    </defs>
    <g id="Page-1" stroke="none" stroke-width="1" fill="none" fill-rule="evenodd" opacity="0.25">
        <g id="graph" transform="translate(0.000000, 3.000000)">
            <polygon id="Path-2" fill="url(#linearGradient-1)" fill-rule="nonzero" points="-4.11892742e-14 452 13.4292233 395.598238 30.6133269 391.788248 51.2048995 430.449109 59.20458 279.641596 69.2402032 288.130578 73.9631634 270.406829 76.6234974 276.068312 81.6159598 274.340035 84.4684143 281.9665 92.3933813 286.940564 92.5348033 303.814767 102.007407 314.511922 113.844159 312.144864 114.465882 283.899057 117.443748 172.919721 126.331986 174.832823 136.733172 200.296526 162.757483 148.224501 173.977848 94.8424869 178.967642 111.745873 180.854158 128.509829 189.998556 147.718664 205.536294 112.167403 233.916749 1 242.15658 42.429994 265.443175 110.092175 274.214005 80.2737335 283.750649 66.43131 300.014176 87.1673835 310.27394 67.1641251 328.053083 94.1712802 336.370296 40.8541172 352.532425 42.3002922 355.430242 54.6414174 371 35.2996381 371 452"></polygon>
            <polyline id="Path-2" stroke="url(#linearGradient-2)" points="8 444 12.9613805 394.439161 30.1679676 390.630707 50.7864821 429.275982 58.7966293 278.529265 68.8453831 287.014825 73.5745227 269.298221 76.2383375 274.957421 81.237332 273.229842 84.0935186 280.853233 92.0288546 285.825291 92.1704616 302.692691 101.655459 313.385534 113.507698 311.01943 114.130235 282.78501 117.111997 171.850414 126.011864 173.762744 136.426659 199.216183 162.48502 147.165149 173.720066 93.8046556 178.716389 110.701227 180.605373 127.458425 189.761735 146.659516 205.319803 111.122588 233.73739 3.74575351e-14 241.988002 41.413292 265.305065 109.048196 274.087371 79.2417753 283.636493 65.4049323 299.921298 86.1326463 310.194486 66.1374519 327.996891 93.1337194 336.324986 39.8380506 352.508262 41.2836425 355.40987 53.6197926 371 34.2858107"></polyline>
        </g>
    </g>
</svg>