<?xml version="1.0" encoding="UTF-8"?>
<svg width="70px" height="71px" viewBox="0 0 70 71" version="1.1" xmlns="http://www.w3.org/2000/svg" xmlns:xlink="http://www.w3.org/1999/xlink">
    <g id="Page-1" stroke="none" stroke-width="1" fill="none" fill-rule="evenodd">
        <g id="icon-feature" fill-rule="nonzero">
            <rect id="Rectangle-Copy-2" fill="#FF8936" x="0" y="0.640423" width="70" height="70" rx="18"></rect>
            <path d="M27.5330517,55 C25.8021119,55 24.0720169,54.3410734 22.7541711,53.024065 C21.9068638,52.1767531 21.3121436,51.1419004 21.0071806,49.9930028 C19.8582893,49.6871933 18.8234424,49.0933146 17.9761352,48.2460026 C15.3412883,45.6111411 15.3412883,41.3238944 17.9761352,38.6890329 C20.0340021,36.629465 23.1267159,36.1437178 25.6720169,37.3720245 L36.3719113,26.6720707 C35.1436114,24.1276003 35.6293559,21.0348693 37.6889124,18.9761461 C40.3237592,16.3412846 44.610982,16.3412846 47.2458289,18.9761461 C48.0931362,19.8234581 48.6878564,20.8583108 48.9928194,22.0072084 C50.1417107,22.3130179 51.1765576,22.9068966 52.0238648,23.7542086 C54.6587117,26.3890701 54.6587117,30.6763168 52.0238648,33.3111783 C49.8992608,35.4366389 46.6511088,35.8691651 44.075396,34.4980909 L33.4988384,45.075552 C34.8707497,47.6504343 34.4365364,50.8994492 32.3119324,53.024065 C30.9940866,54.3410734 29.2639916,55 27.5330517,55 Z M22.7533263,39.2389832 C21.6661035,39.2389832 20.5864836,39.6596824 19.7670539,40.4791168 C18.9695882,41.2765869 18.5303062,42.3376276 18.5303062,43.4662506 C18.5303062,44.5948735 18.9695882,45.6550695 19.7670539,46.4533844 C20.4335797,47.119914 21.2901795,47.5363894 22.244773,47.6571926 L23.2187962,47.7805301 L23.3421331,48.7545587 C23.4629356,49.7083127 23.8794087,50.5657621 24.5459345,51.2322916 C25.3434002,52.0297617 26.4044351,52.4690461 27.5330517,52.4690461 C28.6616684,52.4690461 29.7218585,52.0297617 30.520169,51.2322916 C32.0162619,49.7361904 32.1708553,47.3463144 30.8791975,45.6753442 L30.1974657,44.7933963 L43.7932418,31.1975446 L44.6751848,31.8792802 C46.3469905,33.1709452 48.7360084,33.0163509 50.2329461,31.5202497 C51.0304118,30.7227795 51.4696938,29.6617388 51.4696938,28.5331158 C51.4696938,27.4044929 51.0304118,26.3442969 50.2329461,25.545982 C49.5664203,24.8794525 48.7098205,24.4629771 47.755227,24.3421739 L46.7812038,24.2188363 L46.6578669,23.2448077 C46.5370644,22.2910537 46.1205913,21.4336044 45.4540655,20.7670748 C44.6565998,19.9696047 43.5955649,19.5303203 42.4669483,19.5303203 C41.3383316,19.5303203 40.2781415,19.9696047 39.479831,20.7670748 C38.0318902,22.2150237 37.8274551,24.4807174 38.9957761,26.1525324 L39.6031679,27.0234982 L26.0242872,40.6024543 L25.1533263,39.9950592 C24.4268215,39.4873478 23.587962,39.2389832 22.7533263,39.2389832 Z" id="icon:2" fill="#FFFFFF"></path>
        </g>
    </g>
</svg>
