<?xml version="1.0" encoding="UTF-8"?>
<svg width="97px" height="34px" viewBox="0 0 97 34" version="1.1" xmlns="http://www.w3.org/2000/svg" xmlns:xlink="http://www.w3.org/1999/xlink">
    <defs>
        <linearGradient x1="35.5353448%" y1="8.13463325%" x2="51.4344828%" y2="54.0232517%" id="linearGradient-1">
            <stop stop-color="#03B8FF" offset="0%"></stop>
            <stop stop-color="#FA52A0" offset="100%"></stop>
        </linearGradient>
        <linearGradient x1="36.5085128%" y1="13.4447748%" x2="55.5162467%" y2="64.6614742%" id="linearGradient-2">
            <stop stop-color="#03B8FF" offset="0%"></stop>
            <stop stop-color="#FA52A0" offset="100%"></stop>
        </linearGradient>
        <linearGradient x1="28.7245071%" y1="-7.03539618%" x2="47.7931559%" y2="44.8485902%" id="linearGradient-3">
            <stop stop-color="#03B8FF" offset="0%"></stop>
            <stop stop-color="#FA52A0" offset="100%"></stop>
        </linearGradient>
    </defs>
    <g id="Page-1" stroke="none" stroke-width="1" fill="none" fill-rule="evenodd">
        <g id="Group">
            <g id="sushiswap-sushi-logo">
                <polygon id="Path" fill="url(#linearGradient-1)" fill-rule="nonzero" points="7.5 1.95 35.4 21 28.5 31.2 0.6 12"></polygon>
                <path d="M35.4,21 C33,24.45 24.9,23.1 17.25,17.7 C9.45,12.45 5.25,5.4 7.5,1.95 C9.9,-1.5 18,-0.15 25.65,5.25 C33.45,10.35 37.65,17.55 35.4,21 Z" id="Path" fill="url(#linearGradient-2)" fill-rule="nonzero"></path>
                <path d="M28.5,31.05 C26.1,34.5 18,33.15 10.35,27.75 C2.7,22.35 -1.65,15.45 0.75,11.85 C3.15,8.4 11.25,9.75 18.9,15.15 C26.55,20.55 30.75,27.6 28.5,31.05 Z" id="Path" fill="url(#linearGradient-3)" fill-rule="nonzero"></path>
                <path d="M35.4,21 C35.4,21 35.4,21 35.4,21 L28.5,31.2 L28.5,31.2 C26.1,34.65 18,33.15 10.35,27.9 C8.85,26.85 7.5,25.8 6.15,24.6 C7.2,24.45 8.55,23.85 9.9,22.35 C12.3,19.8 13.5,19.2 14.55,19.35 C15.6,19.35 16.8,20.4 18.75,22.95 C20.7,25.5 23.4,26.25 25.05,24.9 C25.2,24.75 25.35,24.75 25.5,24.6 C26.85,23.55 27.3,23.1 29.85,18.3 C30.45,17.1 32.55,15.15 35.4,16.05 C36.15,18 36.15,19.65 35.4,21 Z" id="Path" fill="#0E0F23" fill-rule="nonzero"></path>
                <path d="M34.35,20.4 C32.25,23.4 24.9,21.9 17.85,16.95 C10.65,12 6.45,5.7 8.55,2.7 C10.65,-0.3 18,1.2 25.05,6.15 C32.1,11.1 36.3,17.4 34.35,20.4 Z M27.75,15.9 C26.7,17.4 23.1,16.65 19.5,14.25 C16.05,11.85 13.95,8.7 15,7.2 C16.05,5.7 19.65,6.45 23.25,8.85 C26.7,11.25 28.8,14.4 27.75,15.9 Z" id="Shape" fill="#FFFFFF"></path>
                <path d="M6.9,5.4 C6.9,5.25 6.75,5.1 6.6,5.25 C6.45,5.4 6.3,5.4 6.3,5.55 C6.45,6 6.6,6.3 6.6,6.6 C6.6,6.75 6.75,6.9 6.9,6.75 C7.05,6.75 7.2,6.6 7.05,6.45 C7.05,6.15 7.05,5.85 6.9,5.4 Z" id="Path" fill="#FFFFFF" fill-rule="nonzero"></path>
                <path d="M7.65,7.8 C7.65,7.65 7.5,7.5 7.35,7.65 C7.2,7.8 7.2,7.8 7.2,7.95 C8.85,11.7 12.3,15.75 16.8,18.75 C16.95,18.9 17.1,18.75 17.25,18.75 C17.4,18.6 17.25,18.45 17.25,18.3 C12.6,15.3 9.3,11.4 7.65,7.8 Z" id="Path" fill="#FFFFFF" fill-rule="nonzero"></path>
                <path d="M25.8,22.5 C25.65,22.5 25.5,22.5 25.5,22.65 C25.5,22.8 25.5,22.95 25.65,22.95 C26.1,23.1 26.7,23.25 27.15,23.4 C27.3,23.4 27.45,23.4 27.45,23.25 C27.45,23.1 27.45,22.95 27.3,22.95 C26.85,22.8 26.25,22.65 25.8,22.5 Z" id="Path" fill="#FFFFFF" fill-rule="nonzero"></path>
                <path d="M28.5,23.1 C28.35,23.1 28.2,23.25 28.2,23.4 C28.2,23.55 28.35,23.7 28.5,23.7 C29.7,23.85 31.05,24 32.1,23.85 C32.25,23.85 32.4,23.7 32.4,23.55 C32.4,23.4 32.25,23.25 32.1,23.25 C30.9,23.4 29.7,23.25 28.5,23.1 Z" id="Path" fill="#FFFFFF" fill-rule="nonzero"></path>
            </g>
            <text id="Sushi" font-family="DMSans-Bold, DM Sans" font-size="21" font-weight="bold" fill="#000000">
                <tspan x="42" y="24">Sushi</tspan>
            </text>
        </g>
    </g>
</svg>
