<?xml version="1.0" encoding="UTF-8"?>
<svg width="380px" height="97px" viewBox="0 0 380 97" version="1.1" xmlns="http://www.w3.org/2000/svg" xmlns:xlink="http://www.w3.org/1999/xlink">
  <g id="Page-1" stroke="none" stroke-width="1" fill="none" fill-rule="evenodd">
    <g id="trustwallet-logo">
      <path d="M127.016,38.347 L116.654,38.347 L116.654,32.24 L144.871,32.24 L144.871,38.347 L134.509,38.347 L134.509,64.622 L127.016,64.622 L127.016,38.347 Z M151.97,43.019 C152.833,41.816 153.99,40.906 155.439,40.289 C156.919,39.673 158.615,39.364 160.527,39.364 L160.527,46.026 C159.726,45.964 159.186,45.933 158.908,45.933 C156.842,45.933 155.223,46.519 154.051,47.691 C152.879,48.832 152.293,50.559 152.293,52.872 L152.293,64.622 L145.077,64.622 L145.077,39.734 L151.97,39.734 L151.97,43.019 Z M187.296,39.734 L187.296,64.622 L180.449,64.622 L180.449,61.661 C179.493,62.74 178.352,63.573 177.026,64.159 C175.7,64.714 174.266,64.992 172.724,64.992 C169.455,64.992 166.865,64.051 164.953,62.17 C163.041,60.289 162.085,57.498 162.085,53.797 L162.085,39.734 L169.301,39.734 L169.301,52.733 C169.301,56.742 170.982,58.747 174.343,58.747 C176.07,58.747 177.458,58.192 178.507,57.081 C179.555,55.94 180.079,54.26 180.079,52.039 L180.079,39.734 L187.296,39.734 Z M199.579,64.992 C197.512,64.992 195.492,64.745 193.519,64.252 C191.545,63.727 189.972,63.08 188.8,62.309 L191.206,57.128 C192.316,57.837 193.657,58.423 195.23,58.885 C196.803,59.317 198.345,59.533 199.856,59.533 C202.909,59.533 204.436,58.778 204.436,57.266 C204.436,56.557 204.019,56.048 203.187,55.74 C202.354,55.432 201.074,55.169 199.347,54.953 C197.312,54.645 195.631,54.29 194.305,53.89 C192.979,53.489 191.823,52.779 190.836,51.762 C189.88,50.744 189.402,49.295 189.402,47.413 C189.402,45.841 189.849,44.453 190.743,43.25 C191.668,42.016 192.994,41.06 194.721,40.382 C196.479,39.704 198.545,39.364 200.92,39.364 C202.678,39.364 204.42,39.565 206.147,39.966 C207.905,40.336 209.355,40.86 210.496,41.538 L208.09,46.673 C205.901,45.44 203.511,44.823 200.92,44.823 C199.378,44.823 198.222,45.039 197.451,45.47 C196.68,45.902 196.294,46.457 196.294,47.136 C196.294,47.907 196.711,48.446 197.543,48.755 C198.376,49.063 199.702,49.356 201.521,49.634 C203.557,49.973 205.222,50.343 206.517,50.744 C207.813,51.114 208.938,51.808 209.894,52.826 C210.85,53.843 211.328,55.262 211.328,57.081 C211.328,58.623 210.866,59.996 209.941,61.198 C209.015,62.401 207.658,63.342 205.87,64.02 C204.112,64.668 202.015,64.992 199.579,64.992 Z M229.057,63.419 C228.348,63.943 227.469,64.344 226.42,64.622 C225.403,64.868 224.323,64.992 223.182,64.992 C220.222,64.992 217.924,64.236 216.29,62.725 C214.686,61.214 213.884,58.993 213.884,56.064 L213.884,45.841 L210.045,45.841 L210.045,40.289 L213.884,40.289 L213.884,34.23 L221.1,34.23 L221.1,40.289 L227.299,40.289 L227.299,45.841 L221.1,45.841 L221.1,55.971 C221.1,57.02 221.363,57.837 221.887,58.423 C222.442,58.978 223.213,59.256 224.2,59.256 C225.341,59.256 226.312,58.947 227.114,58.33 L229.057,63.419 Z M290.108,32.24 L279.515,64.622 L271.466,64.622 L264.342,42.695 L256.987,64.622 L248.984,64.622 L238.345,32.24 L246.116,32.24 L253.425,55 L261.058,32.24 L267.996,32.24 L275.398,55.185 L282.938,32.24 L290.108,32.24 Z M299.193,39.364 C303.048,39.364 306.009,40.289 308.075,42.14 C310.141,43.959 311.174,46.719 311.174,50.42 L311.174,64.622 L304.42,64.622 L304.42,61.522 C303.064,63.835 300.535,64.992 296.834,64.992 C294.922,64.992 293.257,64.668 291.838,64.02 C290.45,63.373 289.386,62.478 288.646,61.337 C287.906,60.196 287.536,58.901 287.536,57.451 C287.536,55.139 288.4,53.319 290.127,51.993 C291.884,50.667 294.583,50.004 298.222,50.004 L303.958,50.004 C303.958,48.431 303.48,47.228 302.524,46.396 C301.568,45.532 300.134,45.1 298.222,45.1 C296.896,45.1 295.585,45.316 294.29,45.748 C293.025,46.149 291.946,46.704 291.052,47.413 L288.461,42.371 C289.818,41.415 291.437,40.675 293.318,40.151 C295.23,39.626 297.189,39.364 299.193,39.364 Z M298.638,60.134 C299.872,60.134 300.967,59.857 301.923,59.302 C302.879,58.716 303.557,57.868 303.958,56.758 L303.958,54.213 L299.008,54.213 C296.048,54.213 294.567,55.185 294.567,57.128 C294.567,58.053 294.922,58.793 295.631,59.348 C296.371,59.872 297.374,60.134 298.638,60.134 Z M314.93,30.298 L322.146,30.298 L322.146,64.622 L314.93,64.622 L314.93,30.298 Z M326.068,30.298 L333.285,30.298 L333.285,64.622 L326.068,64.622 L326.068,30.298 Z M361.585,52.27 C361.585,52.363 361.539,53.011 361.446,54.213 L342.619,54.213 C342.958,55.755 343.76,56.973 345.024,57.868 C346.289,58.762 347.861,59.209 349.743,59.209 C351.038,59.209 352.179,59.024 353.166,58.654 C354.183,58.253 355.124,57.637 355.987,56.804 L359.827,60.967 C357.483,63.65 354.06,64.992 349.558,64.992 C346.751,64.992 344.269,64.452 342.11,63.373 C339.951,62.262 338.286,60.736 337.114,58.793 C335.942,56.85 335.356,54.645 335.356,52.178 C335.356,49.742 335.927,47.552 337.068,45.609 C338.24,43.636 339.828,42.109 341.832,41.03 C343.868,39.919 346.134,39.364 348.632,39.364 C351.069,39.364 353.274,39.889 355.247,40.937 C357.221,41.986 358.763,43.497 359.873,45.47 C361.014,47.413 361.585,49.68 361.585,52.27 Z M348.679,44.823 C347.044,44.823 345.672,45.285 344.562,46.211 C343.451,47.136 342.773,48.4 342.526,50.004 L354.785,50.004 C354.538,48.431 353.86,47.182 352.749,46.257 C351.639,45.301 350.282,44.823 348.679,44.823 Z M379.665,63.419 C378.956,63.943 378.077,64.344 377.029,64.622 C376.011,64.868 374.932,64.992 373.791,64.992 C370.83,64.992 368.533,64.236 366.898,62.725 C365.294,61.214 364.493,58.993 364.493,56.064 L364.493,45.841 L360.653,45.841 L360.653,40.289 L364.493,40.289 L364.493,34.23 L371.709,34.23 L371.709,40.289 L377.908,40.289 L377.908,45.841 L371.709,45.841 L371.709,55.971 C371.709,57.02 371.971,57.837 372.495,58.423 C373.05,58.978 373.821,59.256 374.808,59.256 C375.949,59.256 376.921,58.947 377.723,58.33 L379.665,63.419 Z" id="Shape" fill="#000000" fill-rule="nonzero"></path>
      <rect id="Rectangle" stroke="#DFE5EC" fill="#FFFFFF" fill-rule="nonzero" x="0.5" y="0.5" width="95.4505" height="95.4505" rx="32.0485"></rect>
      <path d="M4.1456,48.914 C4.1456,24.419 24.0025,4.5624 48.497,4.5624 C72.992,4.5624 92.849,24.419 92.849,48.914 C92.849,73.409 72.992,93.266 48.497,93.266 C24.0025,93.266 4.1456,73.409 4.1456,48.914 Z" id="Path" fill="#FFFFFF" fill-rule="nonzero"></path>
      <path d="M48.523,22.407 C57.473,29.882 67.737,29.421 70.669,29.421 C70.028,71.931 65.14,63.501 48.523,75.421 C31.9063,63.501 27.0495,71.931 26.4081,29.421 C29.3099,29.421 39.5733,29.882 48.523,22.407 Z" id="Path" stroke="#000000" stroke-width="6.06304" stroke-linecap="round" stroke-linejoin="round"></path>
    </g>
  </g>
</svg>
