<?xml version="1.0" encoding="UTF-8"?>
<svg width="126px" height="188px" viewBox="0 0 126 188" version="1.1" xmlns="http://www.w3.org/2000/svg" xmlns:xlink="http://www.w3.org/1999/xlink">
    <title>wwf</title>
    <g id="Page-1" stroke="none" stroke-width="1" fill="none" fill-rule="evenodd">
        <g id="wwf" fill="#FFFFFF" fill-rule="nonzero">
            <path d="M43.704,152.962 C42.514,152.962 41.522,153.559 41.125,154.549 L36.165,167.445 L35.768,168.834 L35.372,167.445 L31.404,154.946 L31.404,154.748 C31.007,153.756 30.015,152.962 28.825,152.962 L22.476,152.962 C21.087,153.16 20.095,154.152 20.095,155.74 C20.095,156.136 20.293,156.533 20.293,156.928 L21.086,159.706 L18.11,167.442 L17.515,168.832 L17.118,167.442 L13.348,154.944 L13.348,154.746 L13.15,154.746 C12.952,153.754 11.96,152.96 10.769,152.96 L4.421,152.96 C3.032,153.158 1.842,154.149 1.842,155.738 C1.842,156.134 2.041,156.531 2.238,156.926 L11.562,185.1 C11.959,186.288 12.951,187.082 14.142,187.082 C15.332,187.082 16.324,186.288 16.721,185.297 L23.268,168.632 L23.863,167.045 L24.26,168.632 L29.815,185.1 C30.013,186.288 31.204,187.082 32.394,187.082 C33.585,187.082 34.577,186.288 34.974,185.297 L46.084,156.729 C46.2820006,156.333 46.2820006,155.936 46.2820006,155.539 C46.283,154.152 45.092,152.962 43.704,152.962 L43.704,152.962 Z M90.724,152.962 C89.534,152.962 88.54,153.559 88.145,154.549 L83.185,167.445 L82.789,168.834 L82.393,167.445 L78.424,154.946 L78.424,154.748 C78.028,153.756 77.035,152.962 75.846,152.962 L69.496,152.962 C68.107,153.16 67.115,154.152 67.115,155.74 C67.115,156.136 67.115,156.533 67.313,156.928 L68.107,159.706 L65.13,167.442 L64.534,168.832 L64.138,167.442 L60.368,154.944 L60.17,154.746 C59.972,153.754 58.98,152.96 57.79,152.96 L51.441,152.96 C50.052,153.158 48.862,154.149 48.862,155.738 C48.862,156.134 49.061,156.531 49.259,156.926 L58.584,185.1 C58.98,186.288 59.973,187.082 61.164,187.082 C62.353,187.082 63.346,186.288 63.742,185.297 L70.291,168.632 L70.886,167.045 L71.282,168.632 L76.839,185.1 C77.036,186.288 78.228,187.082 79.417,187.082 C80.607,187.082 81.601,186.288 81.997,185.297 L93.106,156.729 C93.304,156.333 93.304,155.936 93.304,155.539 C93.303,154.152 92.112,152.962 90.724,152.962 L90.724,152.962 Z M121.276,152.962 L99.253,152.962 C97.864,152.962 96.874,153.954 96.874,155.343 L96.874,184.507 C97.071,185.897 98.063,186.888 99.452,186.888 L105.601,186.888 C106.99,186.888 107.982,185.897 107.982,184.507 L107.982,170.819 L117.109,170.819 C118.297,170.819 119.489,169.629 119.489,168.438 C119.489,167.049 118.3,165.858 117.109,165.858 L107.982,165.858 L107.982,158.122 L121.275,158.122 C122.665,158.122 123.854001,156.933 123.854001,155.543 C123.855,154.153 122.666,152.962 121.276,152.962 L121.276,152.962 Z M87.152,59.717 C91.121,64.082 91.516,77.573 101.634,72.216 C107.585,69.042 107.585,55.551 99.452,50.591 C92.903,46.821 89.333,51.98 86.952,58.328 C86.755,58.923 86.755,59.32 87.152,59.717 Z M71.479,57.535 C67.115,60.908 64.337,70.629 56.6,67.256 C50.252,64.082 49.657,51.781 60.568,46.028 C68.107,42.457 71.877,49.401 71.877,56.741 C71.876,56.939 71.678,57.336 71.479,57.535 Z M81.796,81.937 C85.962,81.541 84.97,77.573 81.796,76.779 C79.018,75.787 74.852,75.192 71.678,75.39 C66.321,75.39 66.52,79.556 69.296,80.35 C71.479,80.945 72.866,81.143 74.652,83.524 C76.24,86.699 75.447,82.532 81.796,81.937 Z M101.437,12.896 C106.595,4.167 115.721,5.754 120.285,10.119 C125.246,14.88 126.237,20.435 124.254,24.205 C121.674,29.363 114.93,35.514 110.565,29.562 C108.583,26.785 104.613,23.61 102.233,22.816 C98.857,21.229 98.263,18.252 101.437,12.896 Z" id="Shape"></path>
            <path d="M122.269,51.186 C121.873,49.599 121.078,49.797 121.078,50.988 C121.475,66.859 111.953,83.922 91.717,84.12 C86.559,84.12 88.147,92.255 78.623,88.088 C71.877,83.525 67.909,92.651 63.147,82.93 C61.957,80.152 60.369,78.962 58.385,78.367 C38.347,73.407 31.998,45.83 49.656,23.61 C53.029,25.793 54.417,26.189 58.187,22.618 C59.973,20.832 63.345,18.848 65.13,18.253 C69.296,16.666 71.678,14.88 67.907,6.746 C66.171,2.914 63.806,0.873 61.286,0 L54.547,0 C52.620199,0.573435405 50.8236842,1.51703872 49.258,2.778 C44.1,6.944 40.727,13.491 47.074,21.229 C29.221,33.331 26.047,48.21 26.443,61.304 C26.839,74.993 23.467,73.803 27.832,87.69 C28.228,88.881 27.237,88.881 26.642,88.485 C7.993,76.581 -2.125,40.076 27.039,20.038 C27.634,19.443 27.436,18.649 25.055,20.038 C-0.142,33.331 -2.522,59.122 1.644,76.581 C3.628,84.913 0.652,86.501 3.827,97.611 C11.366,120.625 17.714,122.607 26.84,123.204 C43.307,123.204 31.998,114.078 32.792,102.769 C32.792,101.974 33.586,101.777 33.982,103.165 C43.108,123.4 49.457,141.852 73.264,140.066 C86.952,138.281 79.413,131.535 78.421,127.566 C68.304,94.039 92.903,86.103 85.96,118.837 C81.398,137.685 95.88,135.7 106.196,128.955 C116.712,122.211 129.808,76.382 122.269,51.186 Z M82.192,91.063 C79.811,97.016 68.106,95.032 67.709,89.08 C67.709,88.882 68.106,88.882 68.106,89.08 C73.462,90.27 78.421,90.865 81.794,90.865 C81.994,90.865 82.192,90.667 82.192,91.063 L82.192,91.063 Z" id="Shape"></path>
            <path d="M30.808,133.52 C30.805244,136.696314 28.2313133,139.270692 25.055,139.274 C21.682,139.274 19.103,136.694 19.103,133.52 C19.103,130.345 21.682,127.569 25.055,127.569 C28.229,127.568 30.808,130.345 30.808,133.52 Z M25.055,126.576 C21.087,126.576 17.913,129.553 17.913,133.519 C17.913,137.29 21.087,140.462 25.055,140.462 C28.825,140.462 31.998,137.288 31.998,133.519 C31.998,129.552 28.824,126.576 25.055,126.576 Z" id="Shape"></path>
            <path d="M27.039,134.512 C26.84,135.504 26.047,136.1 25.253,136.1 C23.864,136.1 22.872,134.91 22.872,133.52 C22.872,132.131 23.666,130.942 25.055,130.942 C26.047,130.942 26.84,131.537 27.039,132.331 L28.031,132.331 C27.832,130.744 26.642,129.95 25.055,129.95 C23.071,129.95 21.682,131.537 21.682,133.52 C21.682,135.504 23.071,137.091 25.253,137.091 C26.642,137.091 27.634,136.1 28.031,134.512 L27.039,134.512 L27.039,134.512 Z M122.666,142.646 C122.663794,145.822932 120.088932,148.397794 116.912,148.4 C113.539,148.4 110.961,145.821 110.961,142.646 C110.961,139.47 113.539,136.693 116.912,136.693 C120.085,136.693 122.666,139.471 122.666,142.646 Z M116.912,135.702 C112.943,135.702 109.769,138.679 109.769,142.646 C109.769,146.416 112.943,149.589 116.912,149.589 C120.682,149.589 123.855,146.414 123.855,142.646 C123.855,138.678 120.681,135.702 116.912,135.702 Z" id="Shape"></path>
            <path d="M115.721,143.043 L116.712,143.043 L118.499,146.02 L119.687,146.02 L117.704,143.043 C118.696,142.844 119.489,142.447 119.489,141.257 C119.489,139.868 118.696,139.274 117.109,139.274 L114.728,139.274 L114.728,146.02 L115.719,146.02 L115.721,143.043 Z M115.721,142.25 L115.721,140.266 L116.911,140.266 C117.704,140.266 118.499,140.266 118.499,141.061 C118.499,142.25 117.704,142.25 116.911,142.25 L115.721,142.25 L115.721,142.25 Z" id="Shape"></path>
        </g>
    </g>
</svg>